{"title":"13 Hours The Secret Soldiers of Benghazi 2016 720p Bluray Hin-DD","uid":15303136,"size":1953844545,"categoryP":"video","categoryS":"hd___movies","magnet":"?xt=urn:btih:de881e4915873a275d511c91277486fa131d25fd&amp;dn=13+Hours+The+Secret+Soldiers+of+Benghazi+2016+720p+Bluray+Hin-DD&amp;tr=udp%3A%2F%2Ftracker.leechers-paradise.org%3A6969&amp;tr=udp%3A%2F%2Fzer0day.ch%3A1337&amp;tr=udp%3A%2F%2Fopen.demonii.com%3A1337&amp;tr=udp%3A%2F%2Ftracker.coppersurfer.tk%3A6969&amp;tr=udp%3A%2F%2Fexodus.desync.com%3A6969","seeders":10,"leechers":8,"uploader":"SaM","files":4,"time":1468507884,"description":"- HollywooD MoviE -\r\n**- 13 Hours - The Secret Soldiers of Benghazi -**\r\n- (2016) -\r\n** 720p Blu-Ray / x264 / AAC 5.1 **\r\nHindi Dubbed AAC 5.1 Audio\r\n\r\n ~* SCREENSHOTS *~\r\n \nhttp://extraimago.com/image/a69O \nhttp://extraimago.com/image/a69S \nhttp://extraimago.com/image/a69q \nhttp://extraimago.com/image/a69y \nhttp://extraimago.com/image/a69L \nhttp://extraimago.com/image/a69Q \nhttp://extraimago.com/image/a69R \nhttp://extraimago.com/image/a69m \nhttp://extraimago.com/image/a69i \nhttp://extraimago.com/image/a69l \nhttp://extraimago.com/image/a69I \nhttp://extraimago.com/image/a69d\r\n\r\n[ Specs ]\r\nGeneral\r\nSource = BD50 @ DDR\r\nFormat : Matroska\r\nFile size : 1.81 GiB\r\nDuration : 2h 24mn\r\nOverall bit rate : 1 793 Kbps\r\nEncoded date : UTC 2016-07-13 22:14:41\r\n\r\nVideo\r\nFormat : AVC\r\nFormat profile :   \r\nBit rate : 1 600 Kbps\r\nWidth : 1 280 pixels\r\nHeight : 532 pixels\r\nDisplay aspect ratio : 2.40:1\r\nFrame rate mode : Constant\r\nFrame rate : 23.976 (24000/1001) fps\r\nColor space : YUV\r\nChroma subsampling : 4:2:0\r\nBit depth : 8 bits\r\nScan type : Progressive\r\nBits/(Pixel*Frame) : 0.098\r\nStream size : 1.61 GiB (89%)\r\nTransfer characteristics : BT.709\r\n\r\nAudio #1\r\nFormat : AAC\r\nFormat/Info : Advanced Audio Codec\r\nFormat profile : LC\r\nCodec ID : A_AAC\r\nDuration : 2h 24mn\r\nBit rate : 192 Kbps\r\nChannel(s) : 6 channels\r\nChannel positions : Front: L C R, Side: L R, LFE\r\nSampling rate : 48.0 KHz\r\nFrame rate : 46.875 fps (1024 spf)\r\nCompression mode : Lossy\r\nDelay relative to video : 3s 845ms\r\nStream size : 198 MiB (11%)\r\nLanguage : Hindi\r\nDefault : Yes\r\nForced : No\r\n\r\nChapters: YES\r\nSample : Included\r\n\r\nA DDR Exclusive Encode...!","torrent":{"xt":"urn:btih:de881e4915873a275d511c91277486fa131d25fd","amp;dn":"13+Hours+The+Secret+Soldiers+of+Benghazi+2016+720p+Bluray+Hin-DD","amp;tr":["udp%3A%2F%2Ftracker.leechers-paradise.org%3A6969","udp%3A%2F%2Fzer0day.ch%3A1337","udp%3A%2F%2Fopen.demonii.com%3A1337","udp%3A%2F%2Ftracker.coppersurfer.tk%3A6969","udp%3A%2F%2Fexodus.desync.com%3A6969"],"infoHash":"de881e4915873a275d511c91277486fa131d25fd","infoHashBuffer":{"type":"Buffer","data":[222,136,30,73,21,135,58,39,93,81,28,145,39,116,134,250,19,29,37,253]},"announce":[],"urlList":[]}}